HIERARCHY
ROOT hip
{
	OFFSET 0.000000 0.000000 0.000000
	CHANNELS 6  Xposition Yposition Zposition Xrotation Zrotation Yrotation
	JOINT abdomen
	{
		OFFSET 0.000000 3.402643 0.000000
			CHANNELS 3 Xrotation Zrotation Yrotation
		JOINT chest
		{
			OFFSET 0.000000 8.438565 -0.680529
				CHANNELS 3 Xrotation Zrotation Yrotation
			JOINT neck
			{
				OFFSET 0.000000 10.207942 -0.272212
					CHANNELS 3 Xrotation Zrotation Yrotation
				JOINT head
				{
					OFFSET 0.000000 3.130431 0.000000
						CHANNELS 3 Xrotation Zrotation Yrotation
					End Site
					{
						OFFSET 0.000000 3.130435 0.000000
					}
				}
			}
			JOINT lCollar
			{
				OFFSET 3.470700 6.669187 -0.816635
					CHANNELS 3 Yrotation Zrotation Xrotation
				JOINT lShldr
				{
					OFFSET 3.198488 0.000000 0.000000
						CHANNELS 3 Zrotation Yrotation Xrotation
					JOINT lForeArm
					{
						OFFSET 10.139888 0.000000 0.000000
							CHANNELS 3 Yrotation Zrotation Xrotation
						JOINT lHand
						{
							OFFSET 8.370511 0.000000 0.000000
								CHANNELS 3 Zrotation Yrotation Xrotation
							End Site
							{
								OFFSET 4.083176 0.000000 0.000000
							}
						}
					}
				}
			}
			JOINT rCollar
			{
				OFFSET -3.470700 6.669187 -0.816635
					CHANNELS 3 Yrotation Zrotation Xrotation
				JOINT rShldr
				{
					OFFSET -3.198488 0.000000 0.000000
						CHANNELS 3 Zrotation Yrotation Xrotation
					JOINT rForeArm
					{
						OFFSET -10.139888 0.000000 0.000000
							CHANNELS 3 Yrotation Zrotation Xrotation
						JOINT rHand
						{
							OFFSET -8.370511 0.000000 0.000000
								CHANNELS 3 Zrotation Yrotation Xrotation
							End Site
							{
								OFFSET -4.083176 0.000000 0.000000
							}
						}
					}
				}
			}
		}
	}
	JOINT lThigh 
	{
		OFFSET 5.308129 -1.633274 1.361059
			CHANNELS 3 Xrotation Zrotation Yrotation
		JOINT lShin
		{
			OFFSET -2.041588 -20.007561 0.000000
				CHANNELS 3 Xrotation Zrotation Yrotation
			JOINT lFoot
			{
				OFFSET 0.000000 -19.190928 -1.224953
					CHANNELS 3 Xrotation Yrotation Zrotation
				End Site
				{
					OFFSET 0.000000 -2.449906 4.627600
				}
			}
		}
	}
	JOINT rThigh
	{
		OFFSET -5.308129 -1.633274 1.361059
			CHANNELS 3 Xrotation Zrotation Yrotation
		JOINT rShin
		{
			OFFSET 2.041588 -20.007561 0.000000
				CHANNELS 3 Xrotation Zrotation Yrotation
			JOINT rFoot
			{
				OFFSET 0.000000 -19.190928 -1.224953
					CHANNELS 3 Xrotation Yrotation Zrotation
				End Site
				{
					OFFSET 0.000000 -2.449906 4.627600
				}
			}
		}
	}
}
MOTION
Frames: 13
Frame Time: 0.032000
399.625000 46.315048 1606.959595 22.77 5.29 -8.32 3.86 -1.03 -8.01 1.64 -0.44 -3.43 -5.62 -0.25 3.26 5.50 3.11 3.17 0.56 -3.76 -0.14 -82.04 -10.33 8.48 -109.67 3.33 42.52 14.35 13.24 3.27 4.77 -5.64 -0.06 72.40 -28.60 13.85 85.86 -2.96 34.03 -34.02 9.68 -6.68 -34.38 -0.96 1.96 46.39 -0.36 -3.16 -3.90 -3.62 -12.40 -62.06 -11.71 -4.56 120.17 -4.65 2.70 -0.00 -0.00 0.00 
399.359497 48.638962 1608.863892 23.96 2.82 -8.20 3.16 3.03 -13.11 1.35 1.29 -5.61 -5.16 1.21 7.48 6.63 -1.30 7.69 2.97 -1.58 -0.09 -86.21 -16.67 7.17 -114.91 3.23 40.01 11.39 13.37 2.64 4.47 -7.62 -0.08 60.80 -39.07 23.57 88.46 -2.77 31.89 -34.37 9.82 -6.88 -20.78 3.79 1.19 38.14 -0.70 -2.47 11.35 -9.02 -10.42 -71.30 -7.07 -4.42 101.46 -3.76 3.54 -0.00 -0.00 0.00 
399.686066 48.927353 1606.379639 26.76 1.49 -7.59 3.88 6.42 -15.75 1.66 2.75 -6.75 -8.37 4.05 7.36 7.99 -4.54 8.03 2.88 -0.71 -0.15 -86.95 -22.48 11.15 -120.50 3.25 40.52 15.70 17.57 4.81 5.74 -11.95 -0.01 54.19 -49.33 28.10 89.16 -1.50 16.01 -29.60 14.43 -8.18 -15.99 6.58 0.89 34.57 -1.01 -2.51 14.16 -4.95 -10.79 -80.75 -3.09 0.10 95.67 -3.23 3.62 -0.00 -0.00 0.00 
395.126709 50.551655 1637.229980 27.63 0.47 -6.88 3.03 8.34 -15.29 1.29 3.57 -6.55 -7.36 4.15 8.44 7.92 -8.36 9.23 3.42 -0.67 -0.14 -84.91 -17.98 10.04 -121.95 3.20 41.20 18.49 17.75 5.79 7.85 -13.40 -0.05 54.80 -60.82 25.04 91.93 -2.43 26.86 -37.36 18.52 -13.82 -9.25 7.97 4.61 39.95 -0.59 -2.94 25.42 -3.71 -10.55 -75.36 -1.81 1.30 62.53 -1.13 3.56 -0.00 -0.00 0.00 
395.810333 50.351002 1636.625732 26.39 1.94 -6.19 4.33 9.21 -14.51 1.85 3.95 -6.21 -8.33 3.83 8.32 7.76 -11.03 9.07 3.68 -1.49 -0.07 -84.41 -13.28 9.21 -117.80 3.55 45.77 13.11 13.11 3.06 6.87 -12.25 -0.16 66.85 -58.48 9.01 92.72 -2.78 31.33 -36.22 20.79 -14.70 -11.24 4.94 2.93 65.80 0.46 -3.53 30.45 -6.27 -8.86 -65.58 -4.16 0.60 37.00 0.43 2.50 -0.00 -0.00 0.00 
393.869415 48.773243 1656.282104 24.50 0.96 -5.46 3.63 10.30 -9.86 1.55 4.41 -4.22 -4.78 1.93 6.56 7.35 -13.02 7.23 2.02 -1.55 -0.12 -85.55 -4.10 12.23 -109.31 3.57 44.25 13.12 16.49 3.71 5.09 -7.05 -0.08 67.09 -46.28 5.15 93.96 -2.53 29.63 -30.39 13.58 -8.04 -15.31 3.73 5.51 94.06 2.14 -3.91 31.73 -2.35 -11.00 -57.23 -4.01 -4.76 35.06 0.81 2.18 -0.00 -0.00 0.00 
393.707672 46.363113 1665.034546 24.56 -2.71 -4.73 2.75 13.15 -2.27 1.18 5.63 -0.97 -4.41 -0.69 5.03 6.54 -14.51 5.49 2.18 -3.32 -0.05 -85.97 5.38 14.16 -98.02 3.13 39.54 13.48 17.16 4.07 3.77 -1.92 -0.06 64.93 -24.89 5.34 94.94 -2.39 27.69 -27.07 11.69 -6.13 -28.68 7.50 8.33 119.85 3.75 -3.56 36.14 -6.42 -7.83 -50.23 -0.60 -10.29 44.64 0.40 2.53 -0.00 -0.00 0.00 
394.330231 45.452164 1663.884033 24.95 -5.36 -4.33 4.21 12.65 5.22 1.80 5.42 2.23 -7.37 0.03 4.16 5.76 -15.93 5.05 0.73 -1.34 -0.16 -85.47 17.47 10.61 -92.81 3.01 37.26 15.09 21.85 5.76 5.93 -1.38 -0.03 70.54 2.29 7.81 98.10 -2.72 31.24 -29.84 14.35 -8.16 -54.71 9.90 4.49 131.11 4.51 -3.15 39.97 -9.28 -5.18 -41.46 4.44 -5.16 50.14 0.10 3.13 -0.00 -0.00 0.00 
392.578522 46.820114 1682.133545 24.80 -1.47 -4.11 3.44 8.93 9.03 1.47 3.82 3.86 -6.31 -0.97 0.72 8.18 -13.25 1.07 0.61 0.03 -0.12 -76.65 28.90 18.04 -95.91 2.73 31.76 14.88 21.55 5.60 5.94 -4.73 -0.04 77.42 16.42 12.47 105.75 -2.60 31.10 -31.06 9.83 -5.97 -71.89 2.45 1.66 120.05 4.20 -3.16 33.33 -2.02 -11.07 -27.99 0.03 -2.62 46.24 -0.02 3.02 -0.00 -0.00 0.00 
392.203156 49.145554 1684.718384 25.28 3.25 -4.04 1.39 4.58 12.51 0.60 1.96 5.35 -4.76 -3.19 -3.92 9.98 -9.15 -4.00 -1.04 1.58 -0.15 -63.57 39.92 27.62 -103.19 2.57 29.90 12.24 19.26 4.03 4.00 -7.21 -0.01 77.80 19.80 16.86 114.90 -2.65 32.07 -30.75 9.11 -5.54 -76.22 -4.92 -0.58 93.73 2.61 -4.09 26.77 -1.29 -11.70 -15.79 -6.30 -4.87 40.53 0.16 2.31 -0.00 -0.00 0.00 
390.509430 50.501301 1703.517212 25.27 2.23 -4.08 0.60 2.26 16.19 0.25 0.96 6.94 -5.01 -4.35 -6.08 10.07 -5.69 -6.46 -2.18 2.23 -0.09 -52.65 49.93 31.75 -110.52 2.05 24.94 12.53 17.67 3.83 3.56 -8.06 -0.14 75.18 17.30 19.44 119.48 -2.56 31.86 -30.39 11.68 -6.93 -70.24 -2.70 -3.57 57.54 -0.02 -3.90 22.61 -2.42 -11.20 -9.59 -5.40 -5.14 48.01 0.05 2.92 -0.00 -0.00 0.00 
389.560303 50.087021 1712.892334 24.01 0.17 -4.21 1.55 0.64 16.28 0.66 0.27 6.98 -5.65 -3.18 -6.01 9.92 -3.50 -6.22 -2.15 2.51 -0.09 -56.55 51.53 24.34 -112.99 2.22 25.45 11.33 16.62 3.33 4.11 -7.34 -0.05 75.40 11.93 22.39 116.02 -2.60 31.37 -32.46 8.66 -5.70 -61.02 0.91 -3.37 30.54 -1.07 -2.52 23.26 -1.00 -11.91 -9.04 -3.13 -5.37 67.86 -1.07 3.20 -0.00 -0.00 0.00 
388.495239 48.304031 1723.582520 22.08 -0.22 -4.38 1.61 -0.40 12.12 0.69 -0.16 5.20 -3.32 -1.99 -4.27 8.55 -0.85 -4.30 -0.49 -0.24 -0.01 -65.25 42.67 16.36 -111.98 2.25 27.23 13.10 15.58 3.58 4.54 -6.51 -0.01 77.68 2.86 23.41 105.92 -2.68 31.49 -33.33 7.23 -4.92 -54.41 2.48 0.39 27.69 -1.07 -2.54 23.40 -1.53 -11.81 -12.46 -3.42 -7.96 91.11 -2.86 3.29 -0.00 -0.00 0.00 
